#!OML:ASF H:\Dans Jumps\Project 1\Capture day 1\Session 1\subject.ASF
:FULLY-SPECIFIED
:DEGREES
110
root 0.554379 17.5468 -13.898 7.55523 -0.331842 -1.4434
lowerback -2.07041 -0.553944 0.262845
upperback 3.29065 -0.82925 1.90237
thorax 4.58038 -0.439644 1.76799
lowerneck -14.5988 0.331363 -2.3429
upperneck 29.1397 0.899503 0.728744
head 11.9652 0.234143 0.805898
rclavicle -3.18055e-015 5.1684e-015
rhumerus -24.2479 -17.3579 -77.7064
rradius 24.6559
rwrist 32.6493
rhand -18.306 -26.1502
rfingers 7.12502
rthumb 7.97502 -55.9797
lclavicle -3.18055e-015 5.1684e-015
lhumerus -22.2826 2.28374 85.4566
lradius 19.5635
lwrist 3.76664
lhand -23.6212 -2.99997
lfingers 7.12502
lthumb 2.8432 26.9608
rfemur -14.79 -2.99105 20.8519
rtibia 22.0285
rfoot -14.1573 -2.44272
rtoes 9.9331
lfemur -14.5152 8.76514 -19.5753
ltibia 19.8911
lfoot -11.5767 3.82411
ltoes -1.77257
111
root 0.554411 17.5463 -13.9 7.56317 -0.314372 -1.45026
lowerback -2.03814 -0.555892 0.267759
upperback 3.29667 -0.831978 1.90908
thorax 4.56843 -0.440956 1.77226
lowerneck -14.59 0.32946 -2.34926
upperneck 29.1042 0.897924 0.729443
head 11.9494 0.233225 0.806698
rclavicle -1.88845e-015 2.18663e-014
rhumerus -24.2424 -17.3261 -77.702
rradius 24.6747
rwrist 32.6175
rhand -18.3121 -26.1423
rfingers 7.12502
rthumb 7.96912 -55.9721
lclavicle -1.88845e-015 2.18663e-014
lhumerus -22.2855 2.29645 85.4616
lradius 19.5649
lwrist 3.75572
lhand -23.6299 -3.03261
lfingers 7.12502
lthumb 2.83476 26.9283
rfemur -14.8192 -2.99136 20.8613
rtibia 22.0557
rfoot -14.1591 -2.45924
rtoes 9.92228
lfemur -14.5541 8.75396 -19.5698
ltibia 19.9291
lfoot -11.5829 3.8221
ltoes -1.79463
112
root 0.554544 17.5457 -13.9024 7.57562 -0.297845 -1.4547
lowerback -2.00594 -0.556883 0.271036
upperback 3.30208 -0.833285 1.91438
thorax 4.55582 -0.441587 1.77607
lowerneck -14.5795 0.326369 -2.3538
upperneck 29.067 0.894274 0.72948
head 11.9325 0.23152 0.806617
rclavicle -1.49089e-015 -1.03368e-014
rhumerus -24.2387 -17.2959 -77.6979
rradius 24.6966
rwrist 32.5795
rhand -18.3116 -26.1431
rfingers 7.12502
rthumb 7.96959 -55.9729
lclavicle -1.49089e-015 -1.03368e-014
lhumerus -22.2883 2.30526 85.466
lradius 19.5661
lwrist 3.74783
lhand -23.6443 -3.08503
lfingers 7.12502
lthumb 2.82083 26.8761
rfemur -14.8579 -2.99559 20.8679
rtibia 22.0881
rfoot -14.1609 -2.47026
rtoes 9.91619
lfemur -14.603 8.74117 -19.5685
ltibia 19.974
lfoot -11.5903 3.82253
ltoes -1.81403
113
root 0.554771 17.545 -13.9052 7.59103 -0.283071 -1.45893
lowerback -1.96948 -0.556796 0.275084
upperback 3.30595 -0.83305 1.91875
thorax 4.53912 -0.44139 1.77861
lowerneck -14.5691 0.323261 -2.35442
upperneck 29.0305 0.890327 0.726836
head 11.9161 0.229763 0.804822
rclavicle 2.28602e-015 1.59028e-015
rhumerus -24.2398 -17.2698 -77.6923
rradius 24.7193
rwrist 32.5427
rhand -18.3146 -26.1445
rfingers 7.12502
rthumb 7.96675 -55.9743
lclavicle 2.28602e-015 1.59028e-015
lhumerus -22.2939 2.31241 85.469
lradius 19.5687
lwrist 3.74339
lhand -23.6641 -3.15518
lfingers 7.12502
lthumb 2.80178 26.8062
rfemur -14.9058 -3.00212 20.8743
rtibia 22.1275
rfoot -14.1633 -2.47607
rtoes 9.91097
lfemur -14.6608 8.72817 -19.5687
ltibia 20.0256
lfoot -11.5976 3.82577
ltoes -1.83857
114
root 0.55506 17.5441 -13.9085 7.61078 -0.269325 -1.46137
lowerback -1.92963 -0.556165 0.277961
upperback 3.30917 -0.83192 1.92184
thorax 4.51978 -0.440755 1.78056
lowerneck -14.5617 0.320475 -2.35364
upperneck 28.9927 0.886119 0.725548
head 11.8997 0.228225 0.803266
rclavicle -1.19271e-015 1.47101e-014
rhumerus -24.2404 -17.254 -77.6853
rradius 24.7385
rwrist 32.5152
rhand -18.3129 -26.1449
rfingers 7.12502
rthumb 7.96835 -55.9747
lclavicle -1.19271e-015 1.47101e-014
lhumerus -22.2995 2.3172 85.4698
lradius 19.5643
lwrist 3.73568
lhand -23.701 -3.27998
lfingers 7.12502
lthumb 2.7661 26.6818
rfemur -14.9649 -3.00585 20.8783
rtibia 22.1758
rfoot -14.1676 -2.48167
rtoes 9.91947
lfemur -14.7287 8.71464 -19.5723
ltibia 20.0835
lfoot -11.6039 3.83077
ltoes -1.8655
115
root 0.555411 17.5431 -13.9124 7.63452 -0.256391 -1.46225
lowerback -1.88582 -0.555501 0.280076
upperback 3.31182 -0.830606 1.92408
thorax 4.49759 -0.44003 1.78211
lowerneck -14.5524 0.317834 -2.34579
upperneck 28.9488 0.881571 0.71924
head 11.8807 0.226727 0.79851
rclavicle 8.05078e-015 -1.98785e-014
rhumerus -24.2419 -17.2384 -77.6788
rradius 24.7576
rwrist 32.4892
rhand -18.3116 -26.1476
rfingers 7.12502
rthumb 7.96964 -55.9774
lclavicle 8.05078e-015 -1.98785e-014
lhumerus -22.3059 2.32016 85.4691
lradius 19.5605
lwrist 3.73126
lhand -23.7401 -3.40984
lfingers 7.12502
lthumb 2.72832 26.5525
rfemur -15.036 -3.00771 20.8807
rtibia 22.2341
rfoot -14.1722 -2.48927
rtoes 9.9134
lfemur -14.8068 8.70071 -19.5789
ltibia 20.1483
lfoot -11.6101 3.83724
ltoes -1.88709
116
root 0.555835 17.542 -13.9168 7.66178 -0.24076 -1.46218
lowerback -1.83548 -0.555207 0.281957
upperback 3.31332 -0.829644 1.92607
thorax 4.47049 -0.439466 1.78356
lowerneck -14.5288 0.320338 -2.30467
upperneck 28.8862 0.883281 0.684474
head 11.8516 0.228231 0.778083
rclavicle 5.26779e-015 1.03368e-014
rhumerus -24.2453 -17.2277 -77.6706
rradius 24.7764
rwrist 32.4686
rhand -18.3103 -26.15
rfingers 7.12502
rthumb 7.97082 -55.9797
lclavicle 5.26779e-015 1.03368e-014
lhumerus -22.316 2.32099 85.467
lradius 19.5582
lwrist 3.72781
lhand -23.7866 -3.56741
lfingers 7.12502
lthumb 2.68341 26.3955
rfemur -15.1186 -3.00773 20.8822
rtibia 22.3036
rfoot -14.1793 -2.5012
rtoes 9.89721
lfemur -14.8952 8.68661 -19.5879
ltibia 20.2206
lfoot -11.6172 3.84047
ltoes -1.90639
117
root 0.55635 17.5407 -13.9219 7.69362 -0.223962 -1.46144
lowerback -1.77916 -0.555263 0.283647
upperback 3.31412 -0.829029 1.92791
thorax 4.43928 -0.439065 1.78497
lowerneck -14.4898 0.325756 -2.23898
upperneck 28.802 0.888134 0.628727
head 11.8111 0.231365 0.745842
rclavicle -5.76476e-015 -5.96354e-015
rhumerus -24.2503 -17.2164 -77.6625
rradius 24.798
rwrist 32.447
rhand -18.3062 -26.153
rfingers 7.12502
rthumb 7.97478 -55.9826
lclavicle -5.76476e-015 -5.96354e-015
lhumerus -22.3289 2.31611 85.4643
lradius 19.5618
lwrist 3.73377
lhand -23.8348 -3.71671
lfingers 7.12502
lthumb 2.63688 26.2467
rfemur -15.2141 -3.00498 20.8833
rtibia 22.3836
rfoot -14.186 -2.51925
rtoes 9.86016
lfemur -14.9965 8.67498 -19.5991
ltibia 20.3019
lfoot -11.6259 3.83868
ltoes -1.91728
118
root 0.556956 17.5393 -13.9278 7.73096 -0.205664 -1.46045
lowerback -1.71551 -0.555265 0.285291
upperback 3.31307 -0.828194 1.92984
thorax 4.40198 -0.438536 1.78658
lowerneck -14.4492 0.3278 -2.18552
upperneck 28.7131 0.888183 0.583853
head 11.7685 0.232435 0.719093
rclavicle 1.19271e-014 -2.26615e-014
rhumerus -24.2569 -17.2084 -77.6527
rradius 24.819
rwrist 32.4261
rhand -18.3035 -26.1548
rfingers 7.12502
rthumb 7.97737 -55.9843
lclavicle 1.19271e-014 -2.26615e-014
lhumerus -22.3459 2.305 85.462
lradius 19.5731
lwrist 3.75303
lhand -23.8826 -3.86985
lfingers 7.12502
lthumb 2.59072 26.0942
rfemur -15.3247 -3.00123 20.8846
rtibia 22.4742
rfoot -14.193 -2.54129
rtoes 9.80707
lfemur -15.113 8.66393 -19.6123
ltibia 20.3936
lfoot -11.6358 3.8351
ltoes -1.9365
119
root 0.557678 17.5376 -13.9345 7.77304 -0.185926 -1.46137
lowerback -1.64401 -0.556004 0.288973
upperback 3.31241 -0.828343 1.93272
thorax 4.36064 -0.438438 1.78804
lowerneck -14.4201 0.326163 -2.15459
upperneck 28.6257 0.883926 0.557462
head 11.7287 0.231435 0.702599
rclavicle -4.57205e-015 -1.59028e-014
rhumerus -24.2639 -17.199 -77.643
rradius 24.843
rwrist 32.4034
rhand -18.3006 -26.1553
rfingers 7.12502
rthumb 7.98021 -55.9846
lclavicle -4.57205e-015 -1.59028e-014
lhumerus -22.3625 2.28628 85.4602
lradius 19.5929
lwrist 3.79273
lhand -23.9307 -4.00334
lfingers 7.12502
lthumb 2.5443 25.9612
rfemur -15.45 -2.99491 20.8886
rtibia 22.5752
rfoot -14.199 -2.57171
rtoes 9.72149
lfemur -15.2448 8.65261 -19.6248
ltibia 20.4975
lfoot -11.6476 3.83021
ltoes -1.95548
120
root 0.558603 17.5358 -13.9421 7.82282 -0.166444 -1.45985
lowerback -1.56861 -0.557699 0.289915
upperback 3.31376 -0.829655 1.93596
thorax 4.31928 -0.439026 1.79138
lowerneck -14.4157 0.319494 -2.16099
upperneck 28.548 0.874292 0.561603
head 11.6976 0.227724 0.703318
rclavicle 6.4605e-015 7.95139e-016
rhumerus -24.2649 -17.1889 -77.6331
rradius 24.8664
rwrist 32.3763
rhand -18.2997 -26.151
rfingers 7.12502
rthumb 7.98109 -55.9803
lclavicle 6.4605e-015 7.95139e-016
lhumerus -22.3767 2.26048 85.4598
lradius 19.622
lwrist 3.85295
lhand -23.9758 -4.12775
lfingers 7.12502
lthumb 2.50072 25.8373
rfemur -15.5946 -2.99197 20.8903
rtibia 22.6875
rfoot -14.2035 -2.60397
rtoes 9.60599
lfemur -15.3952 8.64341 -19.6427
ltibia 20.6143
lfoot -11.6622 3.82289
ltoes -1.97456
121
root 0.559731 17.5338 -13.9504 7.87895 -0.147939 -1.45814
lowerback -1.48608 -0.560333 0.291235
upperback 3.31563 -0.832172 1.94029
thorax 4.27446 -0.440216 1.79563
lowerneck -14.4366 0.308666 -2.20073
upperneck 28.4838 0.861066 0.591057
head 11.6767 0.221852 0.71887
rclavicle 3.77691e-015 -1.82882e-014
rhumerus -24.2653 -17.1734 -77.622
rradius 24.8911
rwrist 32.3438
rhand -18.3072 -26.1428
rfingers 7.12502
rthumb 7.97384 -55.9724
lclavicle 3.77691e-015 -1.82882e-014
lhumerus -22.3945 2.23255 85.46
lradius 19.664
lwrist 3.93252
lhand -23.9969 -4.1834
lfingers 7.12502
lthumb 2.48039 25.7819
rfemur -15.7568 -2.99152 20.8921
rtibia 22.8111
rfoot -14.2077 -2.63654
rtoes 9.46964
lfemur -15.5633 8.63776 -19.6637
ltibia 20.7449
lfoot -11.6783 3.81585
ltoes -2.01315
